<?xml version="1.0" encoding="UTF-8"?>
<!DOCTYPE svg PUBLIC "-//W3C//DTD SVG 1.1//EN" "http://www.w3.org/Graphics/SVG/1.1/DTD/svg11.dtd">
<!-- Creator: CorelDRAW -->
<svg xmlns="http://www.w3.org/2000/svg" xml:space="preserve" width="114.3mm" height="114.3mm" version="1.1" style="shape-rendering:geometricPrecision; text-rendering:geometricPrecision; image-rendering:optimizeQuality; fill-rule:evenodd; clip-rule:evenodd"
viewBox="0 0 38856.51 38856.51"
 xmlns:xlink="http://www.w3.org/1999/xlink"
 xmlns:xodm="http://www.corel.com/coreldraw/odm/2003">
 <defs>
  <style type="text/css">
   <![CDATA[
    .fil0 {fill:#F7931A;fill-rule:nonzero}
    .fil1 {fill:white;fill-rule:nonzero}
    .fil2 {fill:black;fill-rule:nonzero;fill-opacity:0.000000}
   ]]>
  </style>
 </defs>
 <g id="Camada_x0020_1">
  <metadata id="CorelCorpID_0Corel-Layer"/>
  <path class="fil0" d="M38856.51 19428.25c0,317.96 -7.82,635.74 -23.42,953.29 -15.57,317.58 -38.96,634.59 -70.13,951.02 -31.17,316.43 -70.06,631.9 -116.74,946.43 -46.64,314.49 -101,627.69 -163.01,939.53 -62.04,311.87 -131.7,622.01 -208.93,930.41 -77.27,308.44 -162.06,614.8 -254.35,919.06 -92.3,304.26 -192,606.07 -299.12,905.46 -107.12,299.36 -221.51,595.94 -343.18,889.69 -121.67,293.75 -250.48,584.34 -386.42,871.77 -135.95,287.43 -278.86,571.36 -428.75,851.75 -149.88,280.43 -306.57,556.98 -470.02,829.72 -163.48,272.71 -333.53,541.27 -510.17,805.62 -176.67,264.38 -359.7,524.27 -549.09,779.65 -189.42,255.41 -384.96,505.98 -586.69,751.77 -201.69,245.79 -409.3,486.47 -622.86,722.06 -213.52,235.59 -432.69,465.8 -657.54,690.65 -224.81,224.81 -455.03,444.01 -690.61,657.54 -235.62,213.52 -476.31,421.13 -722.09,622.86 -245.79,201.69 -496.36,397.27 -751.74,586.66 -255.41,189.42 -515.27,372.45 -779.65,549.09 -264.38,176.64 -532.91,346.72 -805.65,510.17 -272.71,163.45 -549.26,320.13 -829.69,470.02 -280.43,149.88 -564.32,292.8 -851.75,428.75 -287.43,135.95 -578.05,264.75 -871.81,386.42 -293.75,121.67 -590.29,236.1 -889.69,343.22 -299.36,107.12 -601.17,206.83 -905.43,299.12 -304.29,92.3 -610.62,177.05 -919.06,254.32 -308.44,77.27 -618.58,146.89 -930.41,208.93 -311.84,62.04 -625.04,116.37 -939.56,163.01 -314.49,46.68 -629.96,85.57 -946.39,116.74 -316.43,31.17 -633.43,54.56 -951.02,70.17 -317.58,15.6 -635.34,23.39 -953.29,23.39 -317.96,0 -635.74,-7.78 -953.29,-23.39 -317.58,-15.6 -634.59,-38.99 -951.02,-70.17 -316.43,-31.17 -631.9,-70.06 -946.43,-116.74 -314.49,-46.64 -627.69,-100.97 -939.53,-163.01 -311.87,-62.04 -622.01,-131.66 -930.41,-208.93 -308.44,-77.27 -614.77,-162.02 -919.06,-254.32 -304.26,-92.3 -606.07,-192 -905.46,-299.12 -299.36,-107.12 -595.94,-221.51 -889.69,-343.22 -293.75,-121.67 -584.34,-250.48 -871.77,-386.42 -287.43,-135.95 -571.36,-278.86 -851.75,-428.75 -280.43,-149.88 -556.98,-306.57 -829.72,-470.02 -272.71,-163.45 -541.27,-333.53 -805.62,-510.17 -264.38,-176.64 -524.27,-359.67 -779.65,-549.09 -255.41,-189.39 -505.98,-384.96 -751.77,-586.66 -245.79,-201.73 -486.47,-409.34 -722.06,-622.86 -235.59,-213.52 -465.8,-432.72 -690.65,-657.54 -224.81,-224.84 -444.01,-455.06 -657.54,-690.65 -213.52,-235.59 -421.13,-476.27 -622.86,-722.06 -201.69,-245.79 -397.27,-496.36 -586.66,-751.77 -189.42,-255.37 -372.45,-515.27 -549.09,-779.65 -176.64,-264.35 -346.72,-532.91 -510.17,-805.62 -163.45,-272.74 -320.13,-549.29 -470.02,-829.72 -149.88,-280.39 -292.8,-564.32 -428.75,-851.75 -135.95,-287.43 -264.75,-578.02 -386.42,-871.77 -121.67,-293.75 -236.1,-590.33 -343.22,-889.69 -107.08,-299.4 -206.79,-601.21 -299.09,-905.46 -92.33,-304.26 -177.08,-610.62 -254.35,-919.06 -77.27,-308.4 -146.89,-618.54 -208.93,-930.41 -62.04,-311.84 -116.37,-625.04 -163.01,-939.53 -46.68,-314.52 -85.57,-630 -116.74,-946.43 -31.17,-316.43 -54.56,-633.43 -70.17,-951.02 -15.6,-317.55 -23.39,-635.34 -23.39,-953.29 0,-317.96 7.78,-635.71 23.39,-953.29 15.6,-317.58 38.99,-634.59 70.17,-951.02 31.17,-316.43 70.06,-631.87 116.74,-946.39 46.64,-314.52 100.97,-627.72 163.01,-939.56 62.04,-311.84 131.66,-621.98 208.93,-930.41 77.27,-308.44 162.02,-614.77 254.35,-919.03 92.3,-304.29 192,-606.1 299.09,-905.46 107.12,-299.4 221.55,-595.94 343.22,-889.69 121.67,-293.75 250.48,-584.34 386.42,-871.81 135.95,-287.43 278.86,-571.32 428.75,-851.75 149.88,-280.43 306.57,-556.98 470.02,-829.69 163.45,-272.74 333.53,-541.27 510.17,-805.65 176.64,-264.38 359.67,-524.24 549.09,-779.65 189.39,-255.37 384.96,-505.98 586.66,-751.74 201.73,-245.79 409.34,-486.51 622.86,-722.09 213.52,-235.59 432.72,-465.8 657.54,-690.61 224.84,-224.84 455.06,-444.01 690.65,-657.54 235.59,-213.52 476.27,-421.17 722.06,-622.86 245.79,-201.73 496.36,-397.27 751.77,-586.69 255.37,-189.39 515.27,-372.42 779.65,-549.09 264.35,-176.64 532.91,-346.68 805.62,-510.17 272.74,-163.45 549.29,-320.13 829.72,-470.02 280.39,-149.88 564.32,-292.8 851.75,-428.75 287.43,-135.95 578.02,-264.75 871.77,-386.42 293.75,-121.67 590.33,-236.06 889.69,-343.18 299.4,-107.12 601.21,-206.83 905.46,-299.12 304.29,-92.3 610.62,-177.08 919.06,-254.35 308.4,-77.24 618.54,-146.89 930.41,-208.93 311.84,-62.01 625.04,-116.37 939.53,-163.01 314.52,-46.64 630,-85.57 946.43,-116.74 316.43,-31.17 633.43,-54.53 951.02,-70.13 317.55,-15.6 635.34,-23.42 953.29,-23.42 317.96,0 635.71,7.82 953.29,23.42 317.58,15.6 634.59,38.96 951.02,70.13 316.43,31.17 631.9,70.1 946.39,116.74 314.52,46.64 627.72,101 939.56,163.01 311.84,62.04 621.98,131.7 930.41,208.93 308.44,77.27 614.77,162.06 919.06,254.35 304.26,92.3 606.07,192 905.43,299.12 299.4,107.12 595.94,221.51 889.69,343.18 293.75,121.67 584.38,250.48 871.81,386.42 287.43,135.95 571.32,278.86 851.75,428.75 280.43,149.88 556.98,306.57 829.69,470.02 272.74,163.48 541.27,333.53 805.65,510.17 264.38,176.67 524.24,359.7 779.65,549.09 255.37,189.42 505.95,384.96 751.74,586.69 245.79,201.69 486.47,409.34 722.09,622.86 235.59,213.52 465.8,432.69 690.61,657.54 224.84,224.81 444.01,455.03 657.54,690.61 213.56,235.59 421.17,476.31 622.86,722.09 201.73,245.75 397.27,496.36 586.69,751.74 189.39,255.41 372.42,515.27 549.09,779.65 176.64,264.38 346.68,532.91 510.17,805.65 163.45,272.71 320.13,549.26 470.02,829.69 149.88,280.43 292.8,564.32 428.75,851.75 135.91,287.43 264.75,578.05 386.42,871.81 121.67,293.75 236.06,590.29 343.18,889.69 107.12,299.36 206.83,601.17 299.12,905.46 92.3,304.26 177.08,610.59 254.35,919.03 77.24,308.44 146.89,618.58 208.93,930.41 62.01,311.84 116.37,625.04 163.01,939.56 46.68,314.52 85.57,629.96 116.74,946.39 31.17,316.43 54.56,633.43 70.13,951.02 15.6,317.58 23.42,635.34 23.42,953.29z"/>
  <path class="fil1" d="M25959.31 18402.14c711.72,-676.44 1253.33,-1735.45 1096.31,-3380.92 -310.44,-3187.42 -3496.68,-3838.47 -5131.44,-4029.59l0 -2863.48c0,-328.29 -266.45,-594.75 -594.75,-594.75l-2112.9 0c-328.29,0 -594.75,266.45 -594.75,594.75l0 2742.56 -499.19 0 0 -2742.56c0,-328.29 -266.45,-594.75 -594.75,-594.75l-2097.06 0c-328.29,0 -594.75,266.45 -594.75,594.75l0 2829.39 -3690.96 0c-328.33,0 -594.75,266.45 -594.75,594.75l0 2228.69c-7.14,325.13 283.49,603.86 605.05,594.75 566.97,-10.3 1239.43,-15.84 1420.25,-9.11 310.85,-9.52 632.41,36.07 711.69,382.62 0,0 1.19,9284.33 1.19,9284.33 -2.38,34.88 -19.04,67 -56.7,99.13 -422.66,101.51 -882.58,17.44 -1677.97,32.5 -306.47,-12.27 -549.53,208.56 -596.31,500.38l-400.06 2489.2c-63.84,348.93 231.54,698.23 587.2,689.12 0,0 3650.91,0 3650.91,0l0 2884.49c0,328.29 266.45,594.75 594.75,594.75l2112.94 0c328.29,0 594.75,-266.45 594.75,-594.75l0 -2833.33 499.19 0 0 2817.49c0,328.29 266.42,594.75 594.75,594.75l2116.88 0c328.29,0 594.75,-266.45 594.75,-594.75l0 -2885.31c3031.18,-248.61 6012.05,-1116.91 6368.08,-4873.31 211.72,-2226.72 -565.37,-3752.42 -2312.35,-4551.75z"/>
  <path class="fil0" d="M18170.16 14505.78c1253.33,21.01 3704.86,-170.49 3756.81,1511.83 -58.68,1606.99 -2556.61,1462.27 -3756.81,1492.39 0,0 0,-3004.22 0,-3004.22z"/>
  <path class="fil0" d="M22566.89 23334.91c-876.26,863.99 -3161.65,874.29 -4401.09,856.44l0 -3418.18c1247.76,-26.96 3496.68,-63.44 4381.67,802.49 462.71,419.91 495.21,1325.51 19.41,1759.25z"/>
  <polygon class="fil2" points="-0,38856.51 38856.51,38856.51 38856.51,0 -0,0 "/>
 </g>
</svg>
