<?xml version="1.0" encoding="UTF-8"?>
<!DOCTYPE svg PUBLIC "-//W3C//DTD SVG 1.1//EN" "http://www.w3.org/Graphics/SVG/1.1/DTD/svg11.dtd">
<!-- Creator: CorelDRAW -->
<svg xmlns="http://www.w3.org/2000/svg" xml:space="preserve" width="114.3mm" height="107.442mm" version="1.1" style="shape-rendering:geometricPrecision; text-rendering:geometricPrecision; image-rendering:optimizeQuality; fill-rule:evenodd; clip-rule:evenodd"
viewBox="0 0 4578.94 4304.2"
 xmlns:xlink="http://www.w3.org/1999/xlink"
 xmlns:xodm="http://www.corel.com/coreldraw/odm/2003">
 <defs>
  <style type="text/css">
   <![CDATA[
    .fil0 {fill:#D68E17}
    .fil2 {fill:#F3AA0D}
    .fil1 {fill:#FBC707}
    .fil3 {fill:#D68E17;fill-rule:nonzero}
    .fil4 {fill:black;fill-rule:nonzero;fill-opacity:0.000000}
   ]]>
  </style>
 </defs>
 <g id="Camada_x0020_1">
  <metadata id="CorelCorpID_0Corel-Layer"/>
  <path class="fil0" d="M2428.51 19.29c1056.66,135.56 1872.33,1037.98 1872.33,2132.76 0,1093.54 -815.66,1995.88 -1872.33,2132.61l0 17.33 -283.17 0c-1185.26,-2.75 -2145.35,-964.24 -2145.35,-2149.94 0,-1176.96 945.41,-2133.83 2118.06,-2150.01l1.07 -1.16 309.38 0 0 18.48 0 -0.07z"/>
  <path class="fil1" d="M2428.51 0.81c1187.62,0 2150.42,962.64 2150.42,2151.23 0,1186.02 -960.57,2147.72 -2146.3,2149.96l-8.25 0c-1186.89,-2.23 -2147.36,-963.94 -2147.36,-2149.96 -0.08,-1188.52 962.69,-2151.23 2151.49,-2151.23z"/>
  <path class="fil2" d="M2428.51 202.35c1076.35,0 1948.8,872.27 1948.8,1949.64 0,1076.15 -872.44,1948.42 -1948.8,1948.42 -1076.41,0 -1950.01,-872.27 -1950.01,-1948.42 0.03,-1077.35 873.6,-1949.64 1950.01,-1949.64z"/>
  <path class="fil1" d="M2428.51 348.34c995.31,0 1803.95,807.37 1803.95,1803.6 0,995.12 -808.64,1802.53 -1803.95,1802.53 -996.47,0 -1804.1,-807.42 -1804.1,-1802.53 0.06,-996.28 807.63,-1803.6 1804.1,-1803.6z"/>
  <path class="fil3" d="M3047.13 2783.3l149.58 334.81c-53.27,29 -114.78,52.19 -184.22,70.66 -70.67,17.39 -137.83,26.7 -203.92,26.7 -83.49,0 -197.05,-19.84 -337.16,-60.28 -141.33,-40.59 -244.51,-60.28 -311.67,-60.28 -115.85,0 -231.69,40.59 -351.05,123.91l-149.58 -341.67c106.69,-75.39 183.16,-156.42 229.4,-243.25 46.4,-85.76 69.6,-166.79 69.6,-245.69 0,-25.33 -1.22,-52.04 -5.8,-79.81l-293.2 0 0 -311.61 221.32 0c-38.16,-110.03 -57.85,-222.49 -57.85,-336.03 0,-101.94 27.78,-199.19 84.56,-291.9 55.56,-92.69 134.32,-163.33 236.27,-211.96 103.18,-48.65 214.45,-72.97 334.88,-72.97 185.44,0 332.58,47.46 442.63,140.15 110.05,93.82 177.2,228.19 201.63,403.11l-380.05 55.54c-18.47,-100.72 -50.98,-173.72 -97.38,-217.71 -46.25,-45.19 -105.47,-67.18 -174.92,-67.18 -75.25,0 -136.76,25.51 -186.51,75.28 -49.76,50.97 -74.18,113.63 -74.18,189.93 0,39.52 5.8,91.56 19.69,156.42 13.89,64.86 30.22,123.92 49.91,177.32l436.83 0 0 311.61 -373.18 0c3.51,20.76 4.73,41.66 4.73,61.35 0,74.16 -14.04,143.6 -42.89,205.09 -27.93,63.64 -85.78,145.89 -172.63,247.83 52.05,-26.55 116.91,-39.37 194.6,-39.37 32.36,0 62.58,2.29 88.07,5.8 13.89,2.29 50.98,11.6 114.63,27.77 113.56,30.22 191.25,44.1 231.69,44.1 73.11,0 169.27,-25.48 286.18,-77.67z"/>
  <polygon class="fil4" points="-0,4304.2 4578.94,4304.2 4578.94,0 -0,0 "/>
 </g>
</svg>
